<?xml version="1.0" encoding="UTF-8" standalone="no"?>
<svg
   width="192mm"
   height="12mm"
   version="1.1"
   viewBox="0 0 192 12"
   xml:space="preserve"
   id="svg5"
   sodipodi:docname="h.svg"
   inkscape:version="1.4.2 (f4327f4, 2025-05-13)"
   xmlns:inkscape="http://www.inkscape.org/namespaces/inkscape"
   xmlns:sodipodi="http://sodipodi.sourceforge.net/DTD/sodipodi-0.dtd"
   xmlns="http://www.w3.org/2000/svg"
   xmlns:svg="http://www.w3.org/2000/svg"><sodipodi:namedview
     id="namedview5"
     pagecolor="#ffffff"
     bordercolor="#000000"
     borderopacity="0.25"
     inkscape:showpageshadow="2"
     inkscape:pageopacity="0.0"
     inkscape:pagecheckerboard="0"
     inkscape:deskcolor="#d1d1d1"
     inkscape:document-units="mm"
     inkscape:zoom="19.579167"
     inkscape:cx="708.25282"
     inkscape:cy="31.283252"
     inkscape:window-width="1920"
     inkscape:window-height="1009"
     inkscape:window-x="-8"
     inkscape:window-y="-8"
     inkscape:window-maximized="1"
     inkscape:current-layer="svg5" /><defs
     id="defs5"><linearGradient
       id="linearGradient2"
       x1="-3"
       x2="199"
       y1="9"
       y2="9"
       gradientTransform="matrix(0.98163081,0,0,0.8,-0.04408607,2)"
       gradientUnits="userSpaceOnUse"><stop
         stop-color="#d95209"
         offset="0"
         id="stop1" /><stop
         stop-color="#c126ff"
         offset=".2"
         id="stop2" /><stop
         stop-color="#e0cc61"
         offset=".4"
         id="stop3" /><stop
         stop-color="#e94a0c"
         offset=".8"
         id="stop4" /><stop
         stop-color="#46ff6b"
         offset="0.9569481"
         id="stop5" /><stop
         stop-color="#46ff6b"
         offset="0.98881948"
         id="stop18"
         style="stop-color:#ff2121;stop-opacity:1;" /></linearGradient></defs><path
     d="M 0.44672934,11 C 1.4283601,10.91 3.3916218,10.7 4.3732526,10.5 6.3365142,10.1 8.2997758,9.7 10.263037,9.5 12.226299,9 14.189561,8.6 15.171191,8.5 17.134453,8.2 19.097715,8.1 21.060976,8.1 23.024238,8.07 24.987499,8.4 26.950761,8.9 27.24525,8.99 27.932392,9.3 27.834229,9.2 27.048924,9 26.852598,8.8 25.870967,8.6 c -0.294489,-0.08 0.588979,0.2 0.883468,0.3 0.785305,0.3 1.963262,0.6 2.944892,0.9 1.963262,0.5 3.926524,1 5.889785,2 0.981631,0.2 1.963262,0.3 2.944893,0.3 1.963261,0.04 2.944892,0.03 4.908154,-0.1 0.98163,-0.09 0.98163,-0.1 1.963261,-0.3 1.963262,-0.3 3.926523,-1 5.889785,-2 1.963262,-0.5 2.944893,-0.9 4.908154,-1 0.294489,-0.05 0.588979,-0.1 0.981631,-0.1 0.981631,-0.2 2.944892,-0.3 4.908154,-0.2 0.294489,0.02 0.687142,0.05 0.981631,0.07 0.981631,0.1 1.963261,0.2 2.944892,0.4 0.883468,0.2 1.963262,0.4 1.963262,0.6 1.963261,0.6 -0.981631,-0.4 -1.963262,-0.5 -0.196326,-0.05 0.392653,0.1 0.588979,0.2 0.588978,0.2 0.98163,0.5 1.963261,0.7 0.29449,0.1 0.588979,0.2 0.785305,0.3 l 0.883468,0.3 c 1.963261,0.6 2.944892,1 4.908154,1 0.98163,0.2 0.98163,0.2 1.963261,0.3 1.963262,0.1 2.944893,0.2 4.908154,0.1 0.981631,-0.06 0.981631,-0.1 1.963262,-0.3 1.963262,-0.4 3.926523,-1 5.889785,-2 0.981631,-0.4 2.944892,-0.8 3.926523,-1 0.294489,-0.05 0.490815,-0.09 0.785305,-0.1 0.98163,-0.2 2.944892,-0.3 3.926523,-0.2 0.294489,0.01 0.687141,0.04 0.981631,0.06 1.963262,0.1 3.926522,0.5 5.889782,0.9 0.29449,0.07 0.58898,0.1 0.88347,0.2 0.49082,0.1 0.98163,0.3 1.96326,0.4 0.29449,0.07 0.98163,0.3 0.78531,0.2 -1.96327,-0.6 -6.87142,-2 1.96326,0.4 1.96326,0.4 2.94489,0.7 4.90815,0.8 0.98163,0.1 1.96326,0.1 2.94489,0.2 1.96327,0.07 2.9449,0.08 4.90816,-0.1 0.88347,-0.1 0.98163,-0.2 1.96326,-0.4 1.96326,-0.5 3.92652,-1 5.88979,-2 0.98163,-0.3 1.96326,-0.5 2.94489,-0.7 0.58898,-0.1 0.7853,-0.1 0.98163,-0.2 1.96326,-0.2 2.94489,-0.06 4.90815,0.05 1.96326,0.1 3.92653,0.6 5.88979,1 0.39265,0.08 0.68714,0.2 0.98163,0.3 0.98163,0.3 1.96326,0.5 2.94489,0.8 0.98163,0.2 0.98163,0.3 2.94489,0.4 1.96326,0.3 4.90816,0.6 6.87142,0.6 0.49081,0.007 0.98163,-0.01 1.96326,-0.02 2.94489,-0.09 5.88978,-0.7 7.85305,-1 1.96326,-0.6 3.92652,-1 5.88978,-2 0.98163,-0.2 1.96326,-0.4 2.94489,-0.4 0.68715,-0.02 0.98163,0.01 1.96327,0.05 1.96326,0.1 3.92652,0.5 5.88978,1 0.98163,0.3 3.92652,1 -0.98163,-0.3 -0.19633,-0.05 0.39265,0.1 0.58898,0.2 l 0.98163,0.5 c 0.88347,0.5 1.4986,1.390493 2.48023,1.490493 l 4.18192,0.339607 C 191.3264,9.0566348 192.04208,10.356299 187.01959,7.5343243 185.05633,7.1343243 180.67415,6.41 178.71088,6.31 178.41639,6.3 178.12191,6.28 177.82742,6.27 c -0.98163,-0.01 -2.9449,0.2 -3.92653,0.5 -1.96326,0.6 -3.92652,1 -5.88978,2 -2.94489,0.6 -4.90816,1 -7.85305,1 -0.49081,0.001 -0.98163,0.01 -0.98163,0.004 -1.96326,-0.05 -4.90815,-0.3 -6.87141,-0.7 -0.98164,-0.2 -0.98164,-0.2 -2.9449,-0.5 -1.96326,-0.3 -2.94489,-0.7 -4.90815,-1 -1.96326,-0.4 -3.92652,-0.9 -5.88979,-1 -1.96326,-0.1 -2.94489,-0.2 -4.90815,-0.005 -1.96326,0.2 -2.94489,0.6 -3.92652,1 -1.96327,0.6 -3.92653,1 -5.88979,2 -0.88347,0.2 -0.98163,0.3 -1.96326,0.4 -1.96326,0.2 -2.94489,0.2 -4.90815,0.1 -0.98163,-0.08 -1.96327,-0.1 -2.9449,-0.2 -1.96326,-0.2 -2.94489,-0.5 -4.90815,-0.9 0.7853,0.2 2.94489,0.9 1.96326,0.7 -1.96326,-0.7 -4.90815,-1 -6.87141,-2 -1.96327,-0.4 -3.92653,-0.8 -5.889789,-0.9 -0.392653,-0.02 -0.687142,-0.04 -0.981631,-0.05 -0.981631,-0.04 -2.944893,0.05 -3.926523,0.3 -1.963262,0.3 -2.944893,0.8 -4.908154,1 -1.963262,0.6 -3.926524,1 -5.889785,2 -0.981631,0.1 -0.981631,0.2 -1.963262,0.3 -1.963261,0.09 -2.944892,-0.02 -4.908154,-0.2 -0.981631,-0.1 -0.981631,-0.1 -1.963261,-0.3 -0.392653,-0.07 -0.981631,-0.3 -0.981631,-0.2 0.687141,0.3 0.981631,0.4 1.963261,0.7 0.588979,0.2 -1.963261,-0.7 -1.963261,-0.5 -0.588979,-0.2 -0.981631,-0.5 -1.963262,-0.7 -0.981631,-0.5 -2.944892,-0.9 -3.926523,-1 -0.196326,-0.07 -0.490815,-0.1 -0.687142,-0.2 -0.687141,-0.2 -0.883467,-0.2 -1.963261,-0.4 -0.981631,-0.3 -2.944893,-0.4 -3.926523,-0.6 -0.29449,-0.02 -0.687142,-0.05 -0.981631,-0.06 -1.963262,-0.06 -2.944893,0.09 -4.908154,0.3 -0.29449,0.05 -0.687142,0.1 -0.981631,0.2 -1.963262,0.3 -2.944893,0.8 -4.908154,1 -1.963262,0.6 -3.926523,1 -5.889785,2 -0.392652,0.05 -0.785305,0.1 -0.981631,0.2 -1.963261,0.2 -3.926523,0.3 -5.889785,0.2 -0.392652,-0.03 -0.785304,-0.04 -0.98163,-0.08 -0.981631,-0.09 -1.963262,-0.3 -2.944893,-0.5 -0.294489,-0.07 -0.981631,-0.3 -0.883468,-0.2 0.687142,0.2 1.963262,0.5 1.963262,0.7 -0.883468,-0.3 -0.883468,-0.3 -1.963262,-0.6 -0.294489,-0.09 -0.98163,-0.5 -1.963261,-0.6 -0.981631,-0.4 -2.944893,-0.8 -3.926523,-1 -0.29449,-0.1 -0.588979,-0.2 -0.981631,-0.3 -1.963262,-0.5 -3.926523,-0.8 -5.889785,-0.8 -1.963262,0.06 -3.926523,0.1 -5.889785,0.4 -1.963262,0.3 -3.9265231,0.7 -4.9081539,1 -1.9632617,0.5 -3.9265233,0.9 -5.8897849,1 -0.98163078,0.2 -2.9448924,0.4 -3.9265232,0.4 z"
     fill="url(#linearGradient2)"
     stroke-width="0.198155"
     id="path5"
     style="fill:url(#linearGradient2)"
     sodipodi:nodetypes="cscccccccccccccccccccccccccccsccccccccccccccccccscccccccccccsccccccscccsscscccscscccscccccccccccccccccccccccccccccscscccc" /></svg>
