<svg xmlns="http://www.w3.org/2000/svg" xml:space="preserve" width="1791.3" height="173.7" class="img-fluid" viewBox="0 0 17913.5 1737.1"><path fill="#ff6a00" d="M3655.6 360.2c-224 43.7-172.2 268.2-221.5 268.2-26.6 0-29 60 1 60 19 0 20 7 20 265 0 283-5 321-49 345-12 6-21 15-21 20 0 14.3 460 11.4 460 2 0-5-13-18-29-29-86-99.6-51-453.7-51-603 139.7 6.5 143.8-60-2-60 1.4-74-22.8-163.3 33-239 34.4-38.4 89-38.5 89-54 0-16.4-151.5.5-229.5 24.9zM4315 780.4v-152h-189c-184 0-234 8-179 29 90 33.5 74.4 560.4 17 625-16 19-29 36-29 40 0 7.1 450 9.2 450-2 0-4-13-19-29-34-63.5-100.1-41-316.5-41-446 29.6-39.3 57.3-95.7 101-122 62.7 294.2 403 12 161-89-116.2-28-192.8 74.3-262 151zm743.7-155.8C4435.2 613 4610 1508.4 5207 1318.4c83-31 168-129 168-194 0-45-17-37-36 16-64.1 176.3-299.4 100.7-358-98-6-19-3-20 82-16 352 18.4 469.6-393-4.3-401.8zM4999 988.4c-70.6 0-43.9-291 75-340 125.2-30.4 85.7 340-75 340zM5822 624.2c-623.6-11.5-456.3 876.4 148.3 693.8 83-31 168-129 168-194 0-45-17-37-36 16-64.1 176.3-299.4 100.8-358-98-6-19-3-20 82-16 352 18.4 469.6-393-4.3-401.8zM5762.3 988c-70.6 0-43.9-291 75-340 121.4-28.5 85.7 340-75 340z"/><path d="M1105 178.4c39.7 99 120-36.2 172 43 71.7 335-568.4 90-1092 262-307.8 156.1-229.7 565 220 565 136-1 196-47 191-148-3.2-89-185.8-101.6-156 24 49 45 23 114-43 114-198 0-283.1-580 308-580-4.6 207.3 2 633.2-16 796-23.3 49.3-54 49.7-54 64 0 14.3 450 11.4 450 2 0-5-10-17-21-28-78.5-74-49-628-49-831 175-9.5 404.4-56.6 420-266-9.3-292.2-407-221.8-330-17zm14005 169.8c-4.8-7.4-100.6 221.8-314 273.2-89.4 20.8-53.7 57-16 57h35c27.3 342.6-69 685.5 400 636-150.5-129.7-92-430.7-90-636 114.7 13.4 137.2-55.5 0-51-8.9-54.7 9.8-242-15-279.2zM1495 428.4c-186 0-225 7-165 30 14 5 30 21 35 35 12.6 194.2 29.6 642.3-40 802-11 8-20 18-20 24 0 12.4 450 10.1 450 3 0-6-70-71.1-65-86-12.2 1.4-27.6-507.8 52-538 182.4-69.3 99.1 566.5 82 584-10.2 15.6-29 36-29 40 0 7.1 450 9.4 450-3 0-6-9-16-20-24-138-97.4 145.6-728.8-409-663-46.5 7.8-89.4 25.5-131 47v-251zm5440 8c-4.9.7 11 14 25 20 67 45.2 45 158.5 45 231-148.9-83-314.6-66.2-412 66-191.8 255.1 37.4 701 363 539l61-36 22 26c29.6 72.3 399.7 44.4 328 21-44-13-47-38-50-467l-3-408c-123.1-2-261-9.4-379 8zm6320 0c-4 .2 13 14 29 24 83.5 94.9 37.6 619.4 36 787-21 24.6-49.6 45-65 74 0 9.2 450 9.2 450 0 0-6.8-22.6-31.8-65-74l-6-819c-124.4-2.1-257 .5-379 8zm-3241 162c215.7 4.4 190.3 63.6 248 8 97.8-84.8-109.4-257.4-248-8zm-1789 216c0 162.8 373 317.3 373 439 0 116.6-253.3 5.9-315-132-10-24-26-47.6-28-43-17 40.3-32.3 275 39 238 15-9 50-9 155 1 144.6 20.2 398.7 16.3 406-182 0-183.4-360-259.4-360-417 0-144.5 256-18 275 94 32.7 163 34.1-287.2 2-164-7 26-32 26-121-2-200.9-60.9-426 17.6-426 168zm1620-187c-263 0-430 105-430 272-1.9 108 78 170.2 160 222-426.4 383.2 551.2 310.3 530 482-10 82.1-229.2 138.6-333 90-65-30-97-97-71-146 37-76.8-128.8-65.5-168-50-288.6 128.3 352.4 393.2 674 122 367.8-371.1-622-357.4-622-452 0-28 19-32 85-14 266 69 564-32 605-206 44-182-142-320-430-320zm1124 0c-94.5-9.5-167 45.3-234 105v-104h-190c-189 0-221 6-165 32 64 29.4 75.7 578.9-5 635-11 8-20 18-20 24 0 12.4 450 10.8 450 1 0-5-10-17-21-28-76.2-43.8-49-390.2-49-533 205.3-86.3 174.8 138.6 175 254 0 207-9 254-51 282-13 8-24 19-24 24 0 12.1 460 10.3 460 3-215.6-253.7 102.9-652.1-326-695zm5227 0c-544.2 2.7-543.2 599.2-141 699 654.5 157.4 818.7-699 141-699zm-7096 1c-179 0-227 8-171 30 82.5 30.4 78.7 578 5 632-16 12-29 25-29 30 0 2.6 538.5 30.3 440-22-96.2-114.7-59.7-506.8-62-670zm6165 7c-5.3.4 19 22 65 61v551c-21 24.6-49.6 45-65 74 0 9.2 450 9.2 450 0 0-6.8-22.6-31.8-65-74l-6-619c-122-1-257.2-3.9-379 7zm-1320 3c-175 0-229 8-165 24 92.4 18.2 36 275.9 61 524 15.8 97.7 248.8 283.5 472 34l12 28c6 15 23 39 37 52 46.1 44 329.3 32 333 19 4.6-15.8-17.3-.8-46-32-30.7-181.8-23-450.2-25-649h-195c-123 0-194 4-194 10s9 10 20 10 28 12 37 27c37.5 152.3 22.3 324.2 25 482l-25 25c-37 36-73 43-105 19-74.8-49.2-41.3-366.2-52-573zm-4099 10c65 0 98.7 89 100 250 2.8 312-166.3 310.2-207 114-39-166 20-364 107-364zm6353.2 3.2c118.4 2.5 140.7 505.6 52.5 625-169.8 227.7-240.1-629-52.5-625zm-9213 72.1c7 0 12.1 2.4 13.9 7.7 25.9 78.7 24.8 456.7-10 521-197.1 42.3-207.7-529.6-4-528.7zM2698.4 607c-232.6-4.3-340.3 152-368.6 214.8-124.7 305 190 600.3 517 479 83-31 168-129 168-194 0-45-17-37-36 16-64.1 176.3-299.4 100.8-358-98-6-19-3-20 82-16 352 18.4 469.6-393-4.4-401.8zm68.4 33.8c56.3 45 17 330-128 330-70.6 0-43.9-291 75-340 24.2-7 36.2-4.8 53 10zM7838.5 627c-232.6-4.3-340.3 152-368.6 214.8-124.7 305 190 600.3 517 479 83-31 168-129 168-194 0-45-17-37-36 16-64.1 176.3-299.4 100.8-358-98-6-19-3-20 82-16 352 18.4 469.6-393-4.4-401.8zm68.4 33.8c56.3 45 17 330-128 330-70.6 0-43.9-291 75-340 24.2-7 36.2-4.8 53 10zm9408.8-19c-92.2-8.8-167.1 45.4-234 105v-104h-190c-189 0-221 6-165 32 63.8 29.5 75.6 579-5 635-11 8-20 18-20 24 0 12.5 450 11 450 1 0-5-10-17-21-28-76.3-43.6-49-390-49-533 205.2-86.1 174.7 138.7 175 254 0 207-9 254-51 282-13 8-24 19-24 24 0 12.3 460 10.4 460 3-215.6-253.6 101.7-653.9-326-695zm-4519.6-17.4c-544.3 2.7-543.3 599.2-141 699 654.4 157.4 818.6-699 141-699zm3 24.2c118.5 2.5 140.8 505.6 52.6 625-169.8 227.7-240.1-629-52.5-625zm-1144 172.3c0 162.9 373 317.4 373 439 0 116.7-253.4 6-315-132-10-24-26-47.6-28-43-17 40.4-32.4 275.2 39 238 15-9 50-9 155 1 144.5 20.2 398.6 16.4 406-182 0-183.3-360-259.4-360-417 0-144.4 256-18 275 94 32.6 163 34-287.1 2-164-7 26-32 26-121-2-201-60.8-426 17.7-426 168z"/><circle cx="17794.3" cy="1221.5" r="119.2"/><circle cx="9132.9" cy="439.2" r="119.2"/><circle cx="15477.5" cy="442" r="119.2"/></svg>