<svg xmlns="http://www.w3.org/2000/svg" xml:space="preserve" width="1791.3" height="173.7" class="img-fluid" viewBox="0 0 17913.5 1737.1"><path fill="#e00c5c" d="M3656 360c-224 44-173 268-222 268-27 0-29 60 1 60 19 0 20 7 20 265 0 283-5 321-49 345q-20 11-21 20c0 15 460 12 460 2 0-5-13-18-29-29-86-99-51-453-51-603 140 7 144-60-2-60 1-74-23-163 33-239 34-38 89-38 89-54s-151 1-229 25m659 420V628h-189c-184 0-234 8-179 29 90 34 74 561 17 625-16 19-29 36-29 40 0 8 450 10 450-2 0-4-13-19-29-34-63-100-41-316-41-446 30-39 57-95 101-122 63 295 403 12 161-89-116-28-193 75-262 151m744-155c-624-12-449 883 148 693 83-31 168-129 168-194 0-45-17-37-36 16-64 177-299 101-358-98-6-19-3-20 82-16 352 19 470-393-4-401m-60 363c-71 0-44-291 75-340 125-30 86 340-75 340m823-364c-624-11-456 877 148 694 83-31 168-129 168-194 0-45-17-37-36 16-64 176-299 101-358-98-6-19-3-20 82-16 352 18 470-393-4-402m-60 364c-70 0-44-291 75-340 122-28 86 340-75 340"/><path d="M1105 178c40 99 120-36 172 43 72 335-568 90-1092 262-308 156-230 565 220 565 136-1 196-47 191-148-3-89-186-101-156 24 49 45 23 114-43 114-198 0-283-580 308-580-5 208 2 634-16 796-23 50-54 50-54 64 0 15 450 12 450 2 0-5-10-17-21-28-78-74-49-628-49-831 175-9 404-56 420-266-9-292-407-221-330-17m14005 170c-5-7-101 222-314 273-89 21-54 57-16 57h35c27 343-69 686 400 636-150-129-92-430-90-636 115 14 137-55 0-51-9-54 10-242-15-279M1495 428c-186 0-225 7-165 30 14 5 30 21 35 35 13 195 30 643-40 802q-18 14-20 24c0 13 450 11 450 3 0-6-70-71-65-86-12 2-28-507 52-538 182-69 99 567 82 584-10 16-29 36-29 40 0 8 450 10 450-3q-2-10-20-24c-138-97 146-728-409-663q-68 14-131 47V428zm5440 8c-5 1 11 14 25 20 67 46 45 159 45 231-149-83-315-66-412 66-192 255 37 701 363 539l61-36 22 26c30 73 400 45 328 21-44-13-47-38-50-467l-3-408c-123-2-261-9-379 8m6320 0c-4 1 13 14 29 24 84 95 38 620 36 787-21 25-50 45-65 74 0 10 450 10 450 0q-1-9-65-74l-6-819c-124-2-257 1-379 8m-3241 162c216 5 190 64 248 8 98-84-109-257-248-8M8225 814c0 163 373 318 373 439 0 117-253 6-315-132-10-24-26-47-28-43-17 41-32 275 39 238 15-9 50-9 155 1 145 21 399 17 406-182 0-183-360-259-360-417 0-144 256-18 275 94 33 163 34-287 2-164-7 26-32 26-121-2-201-60-426 18-426 168m1620-187c-263 0-430 105-430 272-2 108 78 171 160 222-426 384 551 311 530 482-10 83-229 139-333 90-65-30-97-97-71-146 37-76-129-65-168-50-289 129 352 394 674 122 368-371-622-357-622-452 0-28 19-32 85-14 266 69 564-32 605-206 44-182-142-320-430-320m1124 0c-94-9-167 46-234 105V628h-190c-189 0-221 6-165 32 64 30 76 579-5 635q-18 14-20 24c0 13 450 11 450 1 0-5-10-17-21-28-76-43-49-390-49-533 205-86 175 139 175 254 0 207-9 254-51 282-13 8-24 19-24 24 0 13 460 11 460 3-216-253 103-652-326-695m5227 0c-544 3-543 600-141 699 655 158 819-699 141-699m-7096 1c-179 0-227 8-171 30 83 31 79 578 5 632-16 12-29 25-29 30 0 3 539 31 440-22-96-114-60-506-62-670zm6165 7q-6 2 65 61v551c-21 25-50 45-65 74 0 10 450 10 450 0q-1-9-65-74l-6-619c-122-1-257-3-379 7m-1320 3q-262 0-165 24c92 19 36 276 61 524 16 98 249 284 472 34l12 28c6 15 23 39 37 52 46 44 329 32 333 19 5-15-17 0-46-32-31-181-23-450-25-649h-195c-123 0-194 4-194 10s9 10 20 10 28 12 37 27c38 153 22 325 25 482l-25 25q-56 55-105 19c-75-49-41-366-52-573zm-4099 10c65 0 99 89 100 250 3 312-166 311-207 114-39-166 20-364 107-364m6353 4c119 2 141 505 53 625-170 227-240-629-53-625m-9213 72q11 0 14 7c26 79 25 457-10 521-197 43-208-529-4-528M2698 607a387 387 0 0 0-368 215c-125 305 190 600 517 479 83-31 168-129 168-194 0-45-17-37-36 16-64 176-300 101-358-98-6-19-3-20 82-16 352 18 469-393-5-402m69 34c56 45 17 330-128 330-71 0-44-291 75-340 24-7 36-5 53 10m5072-14a387 387 0 0 0-369 215c-125 305 190 600 517 479 83-31 168-129 168-194 0-45-17-37-36 16-64 176-300 101-358-98-6-19-3-20 82-16 352 18 469-393-5-402m68 34c56 45 17 330-128 330-71 0-44-291 75-340 24-7 36-5 53 10m9409-19c-93-9-167 45-234 105V643h-190c-189 0-221 6-165 32 63 29 75 579-5 635q-18 13-20 24c0 12 450 11 450 1 0-5-10-17-21-28-77-44-49-390-49-533 205-86 174 138 175 254 0 207-9 254-51 282-13 8-24 19-24 24 0 12 460 10 460 3-216-254 101-654-326-695m-4520-18c-544 3-543 600-141 699 654 158 819-699 141-699m3 25c119 2 141 505 53 625-170 227-240-629-53-625m-1144 172c0 163 373 317 373 439 0 117-253 6-315-132-10-24-26-48-28-43-17 40-32 275 39 238 15-9 50-9 155 1 145 20 399 16 406-182 0-183-360-259-360-417 0-144 256-18 275 94 33 163 34-287 2-164-7 26-32 26-121-2-201-61-426 18-426 168"/><circle cx="17794.3" cy="1221.5" r="119.2"/><circle cx="9132.9" cy="439.2" r="119.2"/><circle cx="15477.5" cy="442" r="119.2"/></svg>